<!DOCTYPE svg PUBLIC "-//W3C//DTD SVG 1.1//EN" "http://www.w3.org/Graphics/SVG/1.1/DTD/svg11.dtd">
<!-- Uploaded to: SVG Repo, www.svgrepo.com, Transformed by: SVG Repo Mixer Tools -->
<svg fill="#d4a853" version="1.1" id="Layer_1" xmlns="http://www.w3.org/2000/svg" xmlns:xlink="http://www.w3.org/1999/xlink" viewBox="0 0 512 512" xml:space="preserve" width="800px" height="800px">
<g id="SVGRepo_bgCarrier" stroke-width="0"/>
<g id="SVGRepo_tracerCarrier" stroke-linecap="round" stroke-linejoin="round"/>
<g id="SVGRepo_iconCarrier"> <g> <g> <rect x="182.044" width="34.133" height="51.2"/> </g> </g> <g> <g> <rect x="238.933" width="34.133" height="51.2"/> </g> </g> <g> <g> <rect x="295.822" width="34.133" height="51.2"/> </g> </g> <g> <g> <path d="M347.022,51.2h-17.067v45.511H182.044V51.2h-17.067c-15.684,0-28.444,12.76-28.444,28.444v103.11l16.201,194.404 c2.164,25.975,13.92,50.001,33.101,67.65c14.94,13.747,33.367,22.655,53.098,25.936V512h34.133v-41.256 c19.732-3.28,38.159-12.189,53.099-25.936c19.18-17.649,30.936-41.674,33.101-67.65l16.2-194.404V79.644 C375.467,63.96,362.706,51.2,347.022,51.2z M325.251,374.324c-2.978,35.731-33.396,63.72-69.251,63.72 s-66.273-27.989-69.251-63.72l-14.601-175.213h167.704L325.251,374.324z M341.333,164.978H170.667v-34.133h170.667V164.978z"/> </g> </g> <g> <g> <path d="M256,256c-12.547,0-22.756,10.208-22.756,22.756s10.208,22.756,22.756,22.756c12.547,0,22.756-10.208,22.756-22.756 S268.547,256,256,256z"/> </g> </g> </g>
</svg>